<?xml version="1.0" encoding="utf-8"?>
<!-- Generator: Adobe Illustrator 18.0.0, SVG Export Plug-In . SVG Version: 6.00 Build 0)  -->
<!DOCTYPE svg PUBLIC "-//W3C//DTD SVG 1.1//EN" "http://www.w3.org/Graphics/SVG/1.1/DTD/svg11.dtd">
<svg version="1.1" id="Capa_1" xmlns="http://www.w3.org/2000/svg" xmlns:xlink="http://www.w3.org/1999/xlink" x="0px" y="0px"
	 viewBox="0 179.5 268.5 276" enable-background="new 0 179.5 268.5 276" xml:space="preserve">
<g>
	<path fill="none" stroke="#424A60" stroke-width="19" stroke-linecap="round" stroke-miterlimit="10" d="M83.097,310.926v-67.498
		c0-25.558,22.683-46.466,50.407-46.466l0,0c27.723,0,50.407,20.908,50.407,46.466v67.498H83.097z"/>
	<rect x="50.841" y="297.775" fill="#82C5CB" width="165.327" height="140.263"/>
	<path fill="#424A60" d="M133.504,385.44L133.504,385.44c-7.232,0-13.149-5.917-13.149-13.15v-26.299
		c0-7.232,5.917-13.15,13.149-13.15l0,0c7.232,0,13.15,5.918,13.15,13.15v26.299C146.654,379.523,140.736,385.44,133.504,385.44z"/>
	<rect x="50.841" y="411.739" fill="#38454F" width="165.327" height="26.299"/>
	<path fill="none" stroke="#424A60" stroke-width="19" stroke-linecap="round" stroke-miterlimit="10" d="M84.589,310.926v-67.498
		c0-25.558,22.683-46.466,50.407-46.466l0,0c27.723,0,50.407,20.908,50.407,46.466v67.498H84.589z"/>
	<rect x="52.333" y="297.775" fill="#82C5CB" width="165.327" height="140.263"/>
	<path fill="#424A60" d="M134.996,385.44L134.996,385.44c-7.232,0-13.149-5.917-13.149-13.15v-26.299
		c0-7.232,5.917-13.15,13.149-13.15l0,0c7.232,0,13.15,5.918,13.15,13.15v26.299C148.146,379.523,142.228,385.44,134.996,385.44z"/>
	<rect x="52.333" y="411.739" fill="#38454F" width="165.327" height="26.299"/>
</g>
<image overflow="visible" width="291" height="73" xlink:href="C6B94609.jpg"  transform="matrix(1 0 0 1 250.8867 -133.5)">
</image>
</svg>
