<?xml version="1.0" encoding="utf-8"?>
<!-- Generator: Adobe Illustrator 14.0.0, SVG Export Plug-In . SVG Version: 6.00 Build 43363)  -->
<!DOCTYPE svg PUBLIC "-//W3C//DTD SVG 1.1//EN" "http://www.w3.org/Graphics/SVG/1.1/DTD/svg11.dtd">
<svg version="1.1" id="Calque_1" xmlns="http://www.w3.org/2000/svg" xmlns:xlink="http://www.w3.org/1999/xlink" x="0px" y="0px"
	 width="300px" height="350px" viewBox="0 0 300 350" enable-background="new 0 0 300 350" xml:space="preserve">
<g>
	<path fill="#FFFFFF" stroke="#000000" stroke-width="3" d="M259,306c0,6.627-5.373,12-12,12H53c-6.627,0-12-5.373-12-12V44
		c0-6.627,5.373-12,12-12h194c6.627,0,12,5.373,12,12V306z"/>
	<path fill="#FF5C53" stroke="#C74A45" stroke-width="4" d="M207.424,124.522c-15.856-15.856-41.566-15.856-57.424,0v0.001
		c-15.857-15.857-41.566-15.857-57.424-0.001c-15.857,15.858-15.857,41.567,0,57.425L150,239.371l57.424-57.424
		C223.281,166.09,223.281,140.38,207.424,124.522z"/>
	<g>
		<rect x="42" y="42.667" fill="none" width="49" height="48.333"/>
		<path fill="#C74A45" d="M72.884,80.667H65.34V60.012l0.073-3.394l0.122-3.711c-1.253,1.253-2.124,2.075-2.612,2.466l-4.102,3.296
			l-3.638-4.541l11.499-9.155h6.201V80.667z"/>
	</g>
	<g>
		<rect x="208.32" y="258.957" fill="none" width="49" height="48.334"/>
		<path fill="#C74A45" d="M226.436,269.291h7.545v20.654l-0.074,3.395l-0.121,3.711c1.253-1.254,2.123-2.076,2.611-2.467
			l4.102-3.295l3.639,4.541l-11.5,9.154h-6.201V269.291z"/>
	</g>
</g>
</svg>
