<?xml version="1.0" encoding="utf-8"?>
<!-- Generator: Adobe Illustrator 14.0.0, SVG Export Plug-In . SVG Version: 6.00 Build 43363)  -->
<!DOCTYPE svg PUBLIC "-//W3C//DTD SVG 1.1//EN" "http://www.w3.org/Graphics/SVG/1.1/DTD/svg11.dtd">
<svg version="1.1" id="Calque_1" xmlns="http://www.w3.org/2000/svg" xmlns:xlink="http://www.w3.org/1999/xlink" x="0px" y="0px"
	 width="300px" height="350px" viewBox="0 0 300 350" enable-background="new 0 0 300 350" xml:space="preserve">
<path fill="#FFFFFF" stroke="#000000" stroke-width="3" d="M224.446,327.096c-1.732,6.396-8.323,10.178-14.72,8.445L22.475,284.816
	c-6.397-1.732-10.178-8.324-8.445-14.719L82.532,17.211c1.732-6.397,8.323-10.178,14.72-8.445l187.25,50.723
	c6.397,1.733,10.178,8.323,8.445,14.72L224.446,327.096z"/>
<path fill="#FFFFFF" stroke="#000000" stroke-width="3" d="M224.018,331.826c-0.983,6.553-7.095,11.068-13.648,10.086
	L18.518,313.121c-6.554-0.982-11.07-7.094-10.086-13.646l38.881-259.1c0.984-6.554,7.094-11.07,13.648-10.086l191.852,28.79
	c6.554,0.983,11.069,7.094,10.086,13.648L224.018,331.826z"/>
<path fill="#FFFFFF" stroke="#000000" stroke-width="3" d="M224.665,330.809c0,6.627-5.373,12-12,12h-194c-6.627,0-12-5.373-12-12
	v-262c0-6.627,5.373-12,12-12h194c6.627,0,12,5.373,12,12V330.809z"/>
<path fill="#FF5C53" stroke="#C74A45" stroke-width="4" d="M173.089,149.331c-15.856-15.856-41.566-15.856-57.424,0v0.001
	c-15.857-15.857-41.566-15.857-57.424-0.001c-15.857,15.858-15.857,41.567,0,57.425l57.424,57.424l57.424-57.424
	C188.946,190.898,188.946,165.188,173.089,149.331z"/>
<g>
	<rect x="7.665" y="67.476" fill="none" width="49" height="48.333"/>
	<path fill="#C74A45" d="M38.549,105.475h-7.544V84.821l0.073-3.394l0.122-3.711c-1.253,1.253-2.124,2.075-2.612,2.466l-4.102,3.296
		l-3.638-4.541l11.499-9.155h6.201V105.475z"/>
</g>
<g>
	<rect x="173.985" y="283.766" fill="none" width="49" height="48.334"/>
	<path fill="#C74A45" d="M192.102,294.1h7.543v20.654l-0.072,3.395l-0.123,3.711c1.254-1.254,2.125-2.076,2.613-2.467l4.102-3.295
		l3.637,4.541l-11.498,9.154h-6.201V294.1z"/>
</g>
</svg>
