<?xml version="1.0" encoding="utf-8"?>
<!-- Generator: Adobe Illustrator 18.0.0, SVG Export Plug-In . SVG Version: 6.00 Build 0)  -->
<!DOCTYPE svg PUBLIC "-//W3C//DTD SVG 1.1//EN" "http://www.w3.org/Graphics/SVG/1.1/DTD/svg11.dtd">
<svg version="1.1" id="Layer_1" xmlns="http://www.w3.org/2000/svg" xmlns:xlink="http://www.w3.org/1999/xlink" x="0px" y="0px"
	 viewBox="91.5 145.5 440 426" enable-background="new 91.5 145.5 440 426" xml:space="preserve">
<g>
	<path fill="#FFA6A2" d="M326.552,162.802c-4.62-1.975-9.703-3.067-15.044-3.067c-5.353,0-10.435,1.093-15.064,3.067
		l-159.843,67.923c-5.05,2.148-9.535,5.733-12.783,10.653c-3.242,4.903-4.798,10.442-4.798,15.911v202.412
		c0,5.466,1.556,11.015,4.798,15.921c3.248,4.92,7.738,8.509,12.783,10.653l159.843,67.922c4.626,1.964,9.711,3.068,15.064,3.068
		c5.341,0,10.424-1.104,15.044-3.068l159.847-67.922c5.042-2.144,9.545-5.734,12.789-10.653c3.251-4.903,4.792-10.45,4.792-15.921
		V257.289c0-5.467-1.541-11.008-4.792-15.911c-3.244-4.92-7.747-8.505-12.789-10.632L326.552,162.802z"/>
	<path fill="#FF5C53" d="M499.188,241.378c-3.244-4.92-7.747-8.505-12.789-10.632l-2.533-1.093c2.387,1.034,4.081,3.41,4.081,6.209
		c0,2.783-1.694,5.164-4.081,6.187l-157.314,66.86c-4.62,1.964-9.703,3.059-15.044,3.059c-5.353,0-10.435-1.093-15.064-3.059
		l-157.293-66.863c-2.411-1.023-4.106-3.403-4.106-6.188c0-2.794,1.694-5.175,4.106-6.209l67.619-28.742l-70.166,29.813
		c-5.049,2.148-9.534,5.733-12.783,10.653c-3.241,4.903-4.798,10.442-4.798,15.91v0.17c0-3.119,1.523-6.188,4.322-8.029
		c2.794-1.845,6.199-2.045,9.074-0.831l151.32,64.305c6.727,2.875,12.71,7.645,17.044,14.201c4.331,6.541,6.39,13.924,6.39,21.233
		v200.24c0,2.189-1.053,4.322-3.016,5.617c-1.628,1.082-3.574,1.347-5.339,0.912c3.973,1.389,8.232,2.156,12.695,2.156
		c4.444,0,8.72-0.767,12.702-2.156c-1.774,0.435-3.718,0.17-5.367-0.912c-1.944-1.299-3.004-3.433-3.004-5.617V348.342
		c0-7.309,2.045-14.692,6.383-21.233c4.328-6.552,10.322-11.322,17.049-14.201l151.329-64.305c2.86-1.214,6.279-1.011,9.071,0.831
		c2.797,1.841,4.305,4.913,4.305,8.029v-0.17C503.981,251.822,502.442,246.281,499.188,241.378z"/>
	<g>
		<path fill="#FFFFFF" d="M174.836,454.862c0,11.96-7.748,18.379-17.324,14.351c-9.557-4.041-17.32-17.002-17.32-28.956
			c0-11.968,7.764-18.386,17.32-14.351C167.091,429.937,174.836,442.897,174.836,454.862z"/>
		<path fill="#FFFFFF" d="M290.338,503.553c0,11.949-7.76,18.386-17.33,14.342c-9.568-4.014-17.32-16.986-17.32-28.956
			c0-11.951,7.752-18.38,17.32-14.342C282.583,478.628,290.338,491.604,290.338,503.553z"/>
		<path fill="#FFFFFF" d="M174.836,310.516c0,11.942-7.748,18.36-17.324,14.33c-9.557-4.031-17.32-16.985-17.32-28.956
			c0-11.96,7.764-18.391,17.32-14.349C167.091,285.583,174.836,298.536,174.836,310.516z"/>
		<path fill="#FFFFFF" d="M290.338,359.193c0,11.965-7.76,18.385-17.33,14.357c-9.568-4.042-17.32-17.007-17.32-28.967
			c0-11.949,7.752-18.379,17.32-14.342C282.583,334.267,290.338,347.238,290.338,359.193z"/>
		<path fill="#FFFFFF" d="M232.592,407.029c0,11.959-7.767,18.379-17.317,14.359c-9.579-4.049-17.327-17.009-17.327-28.963
			c0-11.96,7.747-18.38,17.327-14.351C224.825,382.107,232.592,395.067,232.592,407.029z"/>
		<path fill="#FFFFFF" d="M390.421,407.029c0,11.959,7.752,18.379,17.32,14.359c9.575-4.049,17.318-17.009,17.318-28.963
			c0-11.96-7.745-18.38-17.318-14.351C398.168,382.107,390.421,395.067,390.421,407.029z"/>
		<path fill="#FFFFFF" d="M213.334,245.561c-9.577,4.072-25.07,4.072-34.64,0c-9.58-4.072-9.58-10.642,0-14.714
			c9.571-4.08,25.079-4.08,34.64,0C222.907,234.915,222.907,241.489,213.334,245.561z"/>
		<path fill="#FFFFFF" d="M444.309,245.561c-9.561,4.072-25.074,4.072-34.64,0c-9.561-4.072-9.561-10.642,0-14.714
			c9.566-4.08,25.079-4.08,34.64,0C453.879,234.915,453.879,241.489,444.309,245.561z"/>
		<path fill="#FFFFFF" d="M328.826,245.561c-9.571,4.072-25.084,4.072-34.641,0c-9.572-4.072-9.572-10.642,0-14.714
			c9.553-4.08,25.073-4.08,34.641,0C338.399,234.915,338.399,241.489,328.826,245.561z"/>
	</g>
</g>
</svg>
