<?xml version="1.0" encoding="utf-8"?>
<!-- Generator: Adobe Illustrator 15.0.2, SVG Export Plug-In . SVG Version: 6.00 Build 0)  -->
<!DOCTYPE svg PUBLIC "-//W3C//DTD SVG 1.1//EN" "http://www.w3.org/Graphics/SVG/1.1/DTD/svg11.dtd">
<svg version="1.1" id="Layer_1" xmlns="http://www.w3.org/2000/svg" xmlns:xlink="http://www.w3.org/1999/xlink" x="0px" y="0px"
	 width="612px" height="792px" viewBox="0 0 612 792" enable-background="new 0 0 612 792" xml:space="preserve">
<path fill="#CEE8FA" d="M436.379,458.119L436.379,458.119c-0.25-25.786-21.225-46.558-47.012-46.558h-43.094v-65.356
	c0-18.249,14.795-33.042,33.042-33.042h15.789c23.35,0,42.278-18.929,42.278-42.278l0,0c0-23.349-18.929-42.278-42.278-42.278
	h-38.878c-57.427,0-103.981,46.554-103.981,103.981v78.971H221.63c-25.964,0-47.014,21.048-47.014,47.014l0,0
	c0,25.965,21.048,47.014,47.014,47.014h30.616v179.051h94.029V505.589h43.094C415.511,505.589,436.632,484.261,436.379,458.119z"/>
<g>
	<path fill="#2D527C" d="M346.273,702h-94.029c-9.587,0-17.359-7.771-17.359-17.359V522.949h-13.256
		c-35.495,0-64.374-28.877-64.374-64.373s28.877-64.375,64.374-64.375h13.256V332.59c0-66.908,54.434-121.341,121.341-121.341
		h38.878c32.884,0,59.638,26.753,59.638,59.638c0,32.883-26.754,59.638-59.638,59.638h-15.789c-8.646,0-15.683,7.036-15.683,15.683
		v47.997h25.734c35.152,0,64.029,28.598,64.371,63.749c0.168,17.313-6.449,33.621-18.633,45.923
		c-12.184,12.301-28.427,19.074-45.74,19.074h-25.732v161.691C363.633,694.229,355.861,702,346.273,702z M269.606,667.281h59.309
		V505.589c0-9.588,7.772-17.359,17.359-17.359h43.094c7.976,0,15.459-3.121,21.07-8.788c5.611-5.666,8.661-13.18,8.582-21.155
		c-0.156-16.192-13.459-29.367-29.653-29.367h-43.094c-9.587,0-17.359-7.771-17.359-17.359v-65.356
		c0-27.791,22.609-50.401,50.401-50.401h15.789c13.74,0,24.919-11.177,24.919-24.919c0-13.74-11.178-24.918-24.919-24.918h-38.878
		c-47.763,0-86.622,38.858-86.622,86.622v78.97c0,9.588-7.772,17.36-17.359,17.36H221.63c-16.351,0-29.653,13.302-29.653,29.655
		c0,16.351,13.303,29.653,29.653,29.653h30.616c9.587,0,17.359,7.771,17.359,17.359v161.696H269.606z"/>
	<path fill="#2D527C" d="M516.93,702h-45.143c-9.587,0-17.359-7.771-17.359-17.359s7.772-17.359,17.359-17.359h45.143
		c33.276,0,60.352-27.074,60.352-60.352V185.07c0-33.276-27.074-60.351-60.352-60.351H256.235c-9.587,0-17.359-7.772-17.359-17.36
		c0-9.587,7.772-17.359,17.359-17.359H516.93c52.423,0,95.07,42.647,95.07,95.07V606.93C612,659.353,569.353,702,516.93,702z"/>
	<path fill="#2D527C" d="M346.273,702H95.07C42.647,702,0,659.353,0,606.93V185.07C0,132.647,42.647,90,95.07,90h39.068
		c9.587,0,17.359,7.772,17.359,17.359c0,9.588-7.772,17.36-17.359,17.36H95.07c-33.276,0-60.351,27.074-60.351,60.351V606.93
		c0,33.276,27.074,60.352,60.351,60.352h251.203c9.588,0,17.359,7.771,17.359,17.359S355.861,702,346.273,702z"/>
</g>
</svg>
