<?xml version="1.0" encoding="utf-8"?>
<!-- Generator: Adobe Illustrator 14.0.0, SVG Export Plug-In . SVG Version: 6.00 Build 43363)  -->
<!DOCTYPE svg PUBLIC "-//W3C//DTD SVG 1.1//EN" "http://www.w3.org/Graphics/SVG/1.1/DTD/svg11.dtd">
<svg version="1.1" id="Layer_1" xmlns="http://www.w3.org/2000/svg" xmlns:xlink="http://www.w3.org/1999/xlink" x="0px" y="0px"
	 width="612px" height="792px" viewBox="0 0 612 792" enable-background="new 0 0 612 792" xml:space="preserve">
<path fill="#FFFFFF" stroke="#000000" d="M585.5,654.387c0,6.689-5.373,12.112-12,12.112H40.883c-6.627,0-12-5.423-12-12.112
	V137.123c0-6.689,5.373-12.112,12-12.112H573.5c6.627,0,12,5.423,12,12.112V654.387z"/>
<g>
	<path fill="#2D527C" d="M515.149,702h-44.763c-9.505,0-17.214-7.705-17.214-17.214c0-9.506,7.709-17.214,17.214-17.214h44.763
		c32.996,0,59.843-26.845,59.843-59.842V189.433c0-32.995-26.846-59.843-59.843-59.843H256.655c-9.505,0-17.214-7.706-17.214-17.214
		c0-9.507,7.708-17.214,17.214-17.214h258.494c51.979,0,94.27,42.288,94.27,94.27V607.73C609.418,659.713,567.129,702,515.149,702z"
		/>
	<path fill="#2D527C" d="M345.935,696.837H96.85c-51.978,0-94.268-42.287-94.268-94.269v-418.3C2.582,132.288,44.871,90,96.85,90
		h38.738c9.505,0,17.214,7.706,17.214,17.214s-7.709,17.214-17.214,17.214H96.85c-32.995,0-59.842,26.846-59.842,59.842v418.299
		c0,32.995,26.845,59.842,59.842,59.842h249.085c9.505,0,17.214,7.706,17.214,17.214S355.441,696.837,345.935,696.837z"/>
</g>
<path fill="#CEE8FA" d="M247.518,536.736c-77.606,0-140.746-63.141-140.746-140.747c0-77.597,63.139-140.728,140.746-140.728
	c31.843,0,61.004,9.621,84.333,27.823c4.987,3.89,7.084,10.785,4.469,17.221c-0.759,1.865-1.964,3.521-3.389,4.944l-22.178,22.179
	c-2.68,2.679-6.203,4.472-9.986,4.678c-3.457,0.188-6.768-0.808-9.513-2.847c-11.911-8.846-27.034-13.521-43.735-13.521
	c-42.491,0-78.387,36.75-78.387,80.25c0,43.662,35.165,79.185,78.387,79.185c55.612,0,68.009-44.3,68.009-44.3H283.62
	c-8.137,0-14.734-6.597-14.734-14.735v-21.093c0-8.137,6.596-14.731,14.732-14.731h67.944c16.338,0,29.694,13.378,29.694,29.716
	c0,44.926-20.957,77.274-45.125,97.161C312.643,526.521,288.786,536.736,247.518,536.736z"/>
<g>
	<path fill="#2D527C" d="M247.517,553.95c-87.099,0-157.958-70.861-157.958-157.961c0-87.088,70.859-157.941,157.958-157.941
		c35.717,0,68.542,10.883,94.923,31.469c11.163,8.707,15.205,24.032,9.825,37.271c-1.573,3.875-3.981,7.453-7.158,10.632
		l-22.182,22.183c-5.827,5.824-13.362,9.266-21.222,9.693c-7.528,0.407-14.726-1.769-20.711-6.215
		c-8.924-6.626-20.497-10.128-33.476-10.128c-33.159,0-61.174,28.868-61.174,63.036c0,34.171,27.441,61.972,61.174,61.972
		c15.731,0,26.873-4.391,34.669-9.904c-16.953-0.752-30.514-14.779-30.514-31.915v-21.093c0-17.616,14.332-31.946,31.947-31.946
		h67.944c25.864,0,46.907,21.052,46.907,46.928c0,59.305-32.205,94.656-51.401,110.453
		C318.182,544.254,289.34,553.95,247.517,553.95z M247.517,272.477c-68.114,0-123.532,55.406-123.532,123.515
		c0,68.116,55.416,123.533,123.532,123.533c38.753,0,58.455-9.805,77.677-25.625c14.511-11.938,38.851-38.709,38.851-83.868
		c0-6.895-5.601-12.502-12.481-12.502h-65.464v16.135h29.429c5.384,0,10.459,2.521,13.714,6.812s4.314,9.857,2.863,15.041
		c-5.505,19.672-30.268,56.874-84.587,56.874c-52.713,0-95.6-43.244-95.6-96.397c0-52.83,43.779-97.462,95.6-97.462
		c19.605,0,37.595,5.39,52.187,15.608l19.238-19.237C299.057,280.22,274.429,272.477,247.517,272.477z"/>
	<path fill="#2D527C" d="M468.648,449.791c-9.505,0-17.214-7.705-17.214-17.213v-73.156c0-9.506,7.709-17.214,17.214-17.214
		s17.214,7.706,17.214,17.214v73.156C485.862,442.086,478.156,449.791,468.648,449.791z"/>
	<path fill="#2D527C" d="M505.227,413.214H432.07c-9.505,0-17.213-7.706-17.213-17.214c0-9.506,7.708-17.214,17.213-17.214h73.156
		c9.505,0,17.214,7.707,17.214,17.214C522.44,405.506,514.733,413.214,505.227,413.214z"/>
</g>
</svg>
