<?xml version="1.0" encoding="utf-8"?>
<!-- Generator: Adobe Illustrator 18.0.0, SVG Export Plug-In . SVG Version: 6.00 Build 0)  -->
<!DOCTYPE svg PUBLIC "-//W3C//DTD SVG 1.1//EN" "http://www.w3.org/Graphics/SVG/1.1/DTD/svg11.dtd">
<svg version="1.1" id="Layer_1" xmlns="http://www.w3.org/2000/svg" xmlns:xlink="http://www.w3.org/1999/xlink" x="0px" y="0px"
	 viewBox="0 0 612 792" enable-background="new 0 0 612 792" xml:space="preserve">
<g>
	<path fill="#2D527C" d="M516.9,702h-45.1c-9.6,0-17.4-7.8-17.4-17.4s7.8-17.4,17.4-17.4h45.1c33.3,0,60.4-27.1,60.4-60.4V185.1
		c0-33.3-27.1-60.4-60.4-60.4H256.2c-9.6,0-17.4-7.8-17.4-17.4c0-9.6,7.8-17.4,17.4-17.4h260.7c52.4,0,95.1,42.6,95.1,95.1v421.9
		C612,659.4,569.4,702,516.9,702z"/>
	<path fill="#2D527C" d="M346.3,702H95.1C42.6,702,0,659.4,0,606.9V185.1C0,132.6,42.6,90,95.1,90h39.1c9.6,0,17.4,7.8,17.4,17.4
		c0,9.6-7.8,17.4-17.4,17.4H95.1c-33.3,0-60.4,27.1-60.4,60.4v421.9c0,33.3,27.1,60.4,60.4,60.4h251.2c9.6,0,17.4,7.8,17.4,17.4
		S355.9,702,346.3,702z"/>
</g>
<path fill="#CEE8FA" d="M481.1,292.2l-44.9-17.1c-9.5-21.3-25-36.5-46.5-41.5c-62.7-14.6-95.8,44.3-89.1,86.1
	c1,5.9,2.6,11.5,4.7,16.9c-5.6,0.7-87.5,9.2-157.9-45.1c-5.6-4.3-13.6-1.1-15,5.8c-3.9,19.2-2.9,54.1,42.4,82.6c0,0-9,1.1-20.1-0.7
	c-7.1-1.1-12.9,5.6-10.5,12.5c6.3,18.4,23.3,46.2,68.4,49.4c0,0-6.6,3.8-18.4,5.7c-7.1,1.2-10.4,9.6-5.9,15.3
	c10.7,13.3,32.2,30.7,69.3,27.6c0,0,2.6,30.8-106.3,49.8c0,0,54.7,21.3,120.4,21.3c182.1,0,182.2-152.2,175.2-240.6L481.1,292.2z"/>
<path fill="#2D527C" d="M271.6,578c-35.6,0-68-6.1-88.9-11.2c-11.8-2.9-21.4-5.8-27.2-7.7c-12-3.9-20.6-6.7-21.5-18.5
	c-0.7-8.9,5.5-16.9,14.3-18.4c35.1-6.1,57-13.2,70.5-19.4c-17.3-5.4-32.5-15.6-44.1-29.9c-5.8-7.1-7.5-16.7-4.6-25.4
	c-25.7-13.2-37.4-35.4-42.5-50.2c-2.8-8.2-1.5-17.3,3.5-24.3c1.2-1.6,2.5-3.1,3.9-4.4c-24.8-29.7-22.6-60.6-19.7-74.7
	c2.5-12.5,13.6-21.6,26.4-21.6c5.9,0,11.5,1.9,16.2,5.6c45.6,35.1,96.5,41.8,125.1,42.3c-3.5-26.3,5.3-55.3,23-76.1
	c16.5-19.3,39.4-30,64.6-30c7.4,0,15.1,0.9,22.9,2.7c23.7,5.5,42.7,20.9,55.1,44.6l38.5,14.7c5.8,2.2,10,7.3,11,13.5
	c1,6.1-1.4,12.3-6.2,16.2l-27.2,22.1c4.4,65,1.7,143.5-47.4,196.6C384.5,560,335.5,578,271.6,578z M221.4,539.2
	c15.3,2.4,32.4,4.1,50.2,4.1c53.8,0,94.3-14.3,120.3-42.4c42.3-45.7,42.3-119.9,37.6-179.4c-0.4-5.7,1.9-11.2,6.3-14.8l10.9-8.9
	l-16.8-6.4c-4.3-1.6-7.8-4.9-9.7-9.1c-7.8-17.5-19.5-28.2-34.6-31.7c-5.2-1.2-10.3-1.8-15-1.8c-19,0-31.2,9.7-38.1,17.8
	c-11.7,13.8-17.5,33.6-14.8,50.5c0.7,4.5,2,8.9,3.7,13c2.1,5,1.6,10.7-1.1,15.4s-7.5,7.8-12.9,8.4c-2,0.2-9.2,1-20.2,1
	c-29.9,0-86-5.6-138.8-41.2c0.7,15.7,8.7,34.6,35.6,51.5c6.2,3.9,9.3,11.3,7.7,18.5c-1.6,7.2-7.6,12.6-14.9,13.4
	c-0.6,0.1-4,0.5-9.1,0.5c-0.6,0-1.3,0-1.9,0c9.4,15.8,25.5,24.6,47.9,26.2c7.6,0.5,14,6,15.7,13.4c1.7,7.4-1.6,15.1-8.3,18.9
	c-0.9,0.5-4.3,2.4-10,4.3c8.6,6.7,20.8,12.2,37.9,12.2c2.3,0,4.6-0.1,7-0.3c9.5-0.8,17.9,6.3,18.7,15.8c0.3,4,0,18.2-18.9,33
	C247.2,527.7,235.7,533.8,221.4,539.2z"/>
</svg>
